<?xml version="1.0" encoding="utf-8"?>
<!DOCTYPE svg PUBLIC "-//W3C//DTD SVG 1.0//EN" "http://www.w3.org/TR/2001/REC-SVG-20010904/DTD/svg10.dtd">
<svg version="1.0" xmlns="http://www.w3.org/2000/svg" width="274px" height="271px" viewBox="0 0 274 271" preserveAspectRatio="xMidYMid meet">
 <g fill="#ffffff">
  <path d="M135.2 258 c-0.6 -4.7 -1.8 -14.3 -2.6 -21.5 -5.4 -45.4 -8.7 -71.4 -9.4 -73.8 l-0.7 -2.8 -3.5 2.5 c-1.9 1.4 -3.9 2.9 -4.5 3.4 -0.5 0.4 -5.5 4.2 -11 8.2 -5.5 4.1 -10.8 8.3 -11.9 9.2 -3.9 3.5 -13.6 9.9 -13.6 8.9 0 -0.5 0.3 -1.1 0.8 -1.3 0.4 -0.1 3.4 -3.9 6.7 -8.3 3.3 -4.4 10.2 -13.5 15.3 -20.2 5.1 -6.6 9.2 -12.6 9.2 -13.1 0 -1.1 -5.7 -2.2 -29 -5.3 -8.5 -1.1 -18.4 -2.5 -22 -3 -15.9 -2.5 -19.3 -2.9 -33 -4.4 -7.9 -0.9 -16 -2 -18 -2.4 -4 -0.9 -1.6 -1.2 30 -5 51.3 -6 70.6 -8.4 71.7 -8.7 0.9 -0.2 0.6 -1.3 -1 -3.6 -3.1 -4.6 -15.8 -21.6 -24 -32.1 -6.5 -8.4 -8.1 -11.7 -4 -8.3 3.4 2.9 22.8 17.8 32.1 24.8 5.2 3.9 9.6 6.7 9.9 6.4 0.4 -0.3 1.9 -10.2 3.5 -21.9 1.5 -11.6 3.3 -24.3 3.9 -28.2 2.5 -16.2 2.9 -19.7 4.4 -33.5 0.9 -7.9 2 -16 2.4 -18 0.9 -4 1.2 -1.6 5 30 6.1 52.2 8.4 70.6 8.7 71.8 0.3 1 1.2 0.8 3.6 -0.9 1.8 -1.3 3.5 -2.6 3.8 -2.9 2 -2.2 36.2 -27.1 36.6 -26.7 0.3 0.3 -1.4 2.9 -3.8 5.9 -11 13.6 -26.8 34.8 -26.8 35.9 0 1.2 1.3 1.4 25 4.5 11.3 1.5 22.8 3 25.5 3.5 15.9 2.4 20.3 3 33.5 4.4 7.9 0.9 16 2 18 2.4 3.9 0.8 1.8 1.2 -26.5 4.5 -33.6 4 -71.3 8.7 -73.7 9.2 -3.3 0.7 -2.9 2.3 2.4 9.2 2.1 2.6 8 10.6 13.3 17.7 5.2 7.2 10.4 14.1 11.5 15.4 1.2 1.3 1.9 2.5 1.7 2.7 -0.4 0.5 -14.3 -9.8 -19.1 -14.1 -2.7 -2.4 -20.3 -15.3 -22.3 -16.4 -2.8 -1.4 -2.4 -2.9 -5.9 23.9 -1.5 11.3 -3 22.8 -3.5 25.5 -2.4 15.9 -3 20.3 -4.4 33.5 -0.9 7.9 -2 16 -2.4 18 -0.7 3.1 -0.9 2.6 -1.9 -5z m7.8 -55 c1.1 -8.5 2.6 -22.2 3.2 -30.4 l1.1 -14.9 -3.4 -2.8 c-1.8 -1.5 -3.7 -2.5 -4.1 -2.3 -0.5 0.3 -0.7 17.5 -0.7 38.2 0.1 39.8 0.2 40.1 3.9 12.2z m-26.4 -62.2 l2.7 -3.3 -4.9 -0.7 c-7.6 -1 -72.9 -0.7 -66.9 0.3 16.2 2.8 48.6 6.4 60.7 6.7 5.2 0.2 5.8 0 8.4 -3z m109.9 -9.9 c-11.2 -2 -36.9 -5 -50.9 -6.1 l-15 -1.1 -2.8 3.2 c-1.5 1.7 -2.8 3.6 -2.8 4.1 0 0.6 13.7 1 38.3 0.9 25.2 -0.1 36.5 -0.4 33.2 -1z m-91.6 -52.1 c-0.1 -25.3 -0.4 -36.6 -1 -33.3 -2.5 14.6 -7.3 56.5 -7.1 63.5 0 2.4 5.1 8 7.2 8 0.6 0 1 -13.7 0.9 -38.2z"/>
 </g>
</svg>